# xmcd CD database file
#
# Track frame offsets:
#	150
#	35913
#	60926
#	78860
#	116532
#	142873
#	183905
#	208729
#	241725
#
# Disc length: 3661 seconds
#
# Revision: 0
# Processed by: cddbd v1.5.2PL0 Copyright (c) Steve Scherf et al.
# Submitted via: CDex 1.76
#
DISCID=6e0e4b09
DTITLE=Ashi - Sacred Space
DYEAR=2013
DGENRE=New Age
TTITLE0=Ashi - Deep Aum
TTITLE1=Ashi - Divine Calling
TTITLE2=Ashi - Sacred Space
TTITLE3=Ashi - Celebration Of The Spirit
TTITLE4=Ashi - Desert Horizon
TTITLE5=Ashi - Still Point
TTITLE6=Ashi - Indian Summer
TTITLE7=Ashi - Cultivating Dhyana
TTITLE8=Ashi - Perfect Zen
EXTD=YEAR: 2013
EXTT0=
EXTT1=
EXTT2=
EXTT3=
EXTT4=
EXTT5=
EXTT6=
EXTT7=
EXTT8=
PLAYORDER=
